<svg width="174" height="150" viewBox="0 0 174 150" fill="none" xmlns="http://www.w3.org/2000/svg">
<rect width="174" height="150" fill="white"/>
<path d="M20 82.909C20 84.3635 21.1463 85.5455 22.645 85.5455H33.2238V82.818H22.645V80.091H33.0474C34.4579 80.091 35.8683 78.9089 35.8683 77.4545V77.5455V72.1815C35.8683 70.727 34.5461 69.2724 33.0474 69.2724H22.645C21.234 69.2724 20 70.727 20 72.1815V82.909ZM33.2238 77.3635H22.645V71.9089H33.2238V77.3635ZM68.5748 69.1819H58.0841C56.6737 69.1819 55.2632 70.6365 55.2632 72.091V82.909V82.818C55.2632 84.2724 56.6737 85.5455 58.0841 85.5455H68.4866V88.2725H57.9077V91H68.5748C69.9853 91 71.1315 89.727 71.1315 88.2725V72.091C71.1315 70.6365 69.9853 69.1819 68.5748 69.1819ZM68.4866 82.818H57.9077V71.9089H68.4866V82.818ZM48.2103 69.1819H40.3646C38.954 69.1819 37.6314 70.6365 37.6314 72.091V85.5455H40.2764V71.9089H48.2103C49.6208 71.9089 50.8552 73.2725 50.8552 74.818V85.5455H53.4997V74.818C53.4997 71.818 51.1195 69.1819 48.2103 69.1819ZM86.1184 82.818H75.5396V74.727C75.5396 73.2725 76.95 71.818 78.4487 71.818H86.1184V85.4545H88.7629V72.091C88.7629 70.6365 87.7049 69.1819 86.2945 69.1819H78.4487C75.5396 69.1819 72.8946 71.818 72.8946 74.818V82.909C72.8946 84.3635 74.3933 85.5455 75.8038 85.5455H80.3882C82.7685 85.5455 85.237 84.5455 86.1184 82.818V85.5455V82.818ZM146.066 61H143.421V85.5455H146.066V71.9089H154V69.1819H146.066V61ZM109.039 82.909C109.039 84.3635 109.832 85.5455 111.244 85.5455H121.382V88.2725H111.684V91H121.734C123.145 91 124.026 89.727 124.026 88.1815V88.2725V72.091C124.026 70.6365 123.145 69.1819 121.734 69.1819H111.244C109.832 69.1819 109.039 70.6365 109.039 72.091V82.909ZM121.382 82.818H111.684V71.9089H121.382V82.818ZM103.75 69.1819H93.5234C92.113 69.1819 90.5264 70.6365 90.5264 72.091V82.909V82.818C90.5264 84.2724 92.113 85.5455 93.5234 85.5455H106.395V61H103.75V69.1819ZM103.75 82.818H93.1709V71.9089H103.75V82.818ZM125.789 82.909C125.789 84.3635 127.288 85.5455 128.698 85.5455H139.013V82.818H128.434V80.091H139.19C140.6 80.091 141.657 78.9089 141.657 77.4545V77.5455V72.1815C141.657 70.727 140.6 69.2724 139.19 69.2724H128.698C127.288 69.2724 125.789 70.727 125.789 72.1815V82.909ZM139.013 77.3635H128.434V71.9089H139.013V77.3635Z" fill="#101011"/>
</svg>
