<svg width="174" height="150" viewBox="0 0 174 150" fill="none" xmlns="http://www.w3.org/2000/svg">
<rect width="174" height="150" fill="white"/>
<path d="M129.237 66.9786C128.532 63.2557 127.356 59.6976 125.754 56.379C124.061 52.8687 121.896 49.6298 119.356 46.7267C116.465 43.4217 113.085 40.5552 109.318 38.258C102.808 34.2891 95.1661 32 86.9998 32C81.0672 32 75.4118 33.2078 70.2657 35.3901C66.1852 37.1202 62.4326 39.4716 59.1096 42.3115C49.8723 50.2048 44 61.9265 44 75.0006C44 88.0747 49.8726 99.7976 59.1096 107.688C60.7532 109.093 62.5004 110.377 64.3432 111.524C70.9272 115.623 78.6898 118 87 118C92.9328 118 98.5884 116.792 103.734 114.61C107.815 112.879 111.567 110.528 114.89 107.688C124.127 99.7952 130 88.0737 130 75.0006C130 72.2586 129.731 69.5792 129.238 66.9786H129.237ZM59.1096 102.318C52.2113 95.2759 47.9531 85.6378 47.9531 75.0006C47.9531 64.3634 52.2113 54.7258 59.1096 47.6833V102.318ZM103.734 75.2658V110.287C98.6613 112.698 92.9887 114.05 86.9995 114.05C80.6795 114.05 74.7154 112.539 69.4339 109.873L100.946 99.6342V87.9039L70.2652 97.8729V39.7167C75.3375 37.3068 81.0099 35.9541 86.9993 35.9541C93.1633 35.9541 98.9907 37.3875 104.175 39.931L73.0547 50.0433V61.7736L81.4213 59.0545V91.3145L92.5773 87.6886V55.4308L114.889 48.1814L115.25 48.0643C117.936 50.8808 120.207 54.0954 121.96 57.62L95.3675 66.2598V77.9906L103.734 75.2658ZM114.89 102.318V71.6394L125.446 68.2098C125.833 70.4165 126.046 72.6829 126.046 75.0001C126.046 85.637 121.788 95.2751 114.89 102.317V102.318Z" fill="#1F1F1F"/>
</svg>
