<svg width="174" height="150" viewBox="0 0 174 150" fill="none" xmlns="http://www.w3.org/2000/svg">
<rect width="174" height="150" fill="white"/>
<path d="M144.447 92.2896L106.038 87.9307L143.267 94.5439C143.346 94.6235 143.405 94.7199 143.441 94.8258C143.477 94.9317 143.489 95.0444 143.475 95.1553C143.461 95.2663 143.422 95.3726 143.361 95.4664C143.3 95.5602 143.218 95.6389 143.122 95.6968L76.6664 113.365C73.781 114.566 71.853 113.218 71.853 113.218L38.9668 92.9602L35.8951 38.3656L85.597 48.52C80.6432 54.2174 76.038 60.2069 71.8064 66.456C71.8064 66.456 64.3612 49.7116 56.3183 53.0775C56.1531 53.1487 55.979 53.1973 55.8007 53.2219C55.2831 53.2864 53.7744 53.6785 49.8875 55.8192C49.8875 55.8192 59.0458 55.8192 68.7502 79.6514C68.7502 79.6514 72.632 75.669 76.4335 74.2066C80.6539 65.615 85.6199 57.4076 91.2747 49.6781L92.9128 50.0134L97.1439 84.0025L47.0797 89.6485L100.583 86.85C100.583 86.85 97.5424 52.1 97.2526 49.0591C96.9628 46.0181 94.3853 45.7267 94.3853 45.7267L94.3102 45.7112C97.2668 41.9792 100.511 38.4824 104.012 35.2524C104.084 34.1597 104.23 33.0731 104.449 32C104.449 32 98.7303 34.5792 89.2096 44.566L34.2751 32.2296C30.1708 31.9381 30 35.9075 30 35.9075L33.403 96.3235L69.2367 117.69C73.4523 120.241 77.7766 118.281 77.7766 118.281L144.444 98.0877C147.943 94.9927 144.447 92.2896 144.447 92.2896Z" fill="#1F1F1F"/>
</svg>
