<svg width="174" height="150" viewBox="0 0 174 150" fill="none" xmlns="http://www.w3.org/2000/svg">
<rect width="174" height="150" fill="white"/>
<path d="M126.71 87.6608C127.823 87.6608 130 87.6608 130 87.6608V91.6833C130 91.6833 125.748 91.6833 124.888 91.6833C123.217 91.6833 121.598 90.8582 122.053 91.0645C119.674 89.9815 118.763 87.3513 118.56 84.4118V50.7357H123.926V59.1418V59.1934H129.038V63.1128H123.926V63.1644V84.8243C124.027 86.9903 125.293 87.6608 126.71 87.6608ZM96.6937 84.5665V66.1039C96.5419 55.6865 114.562 55.635 114.258 66.3618V75.2321C114.258 75.7994 113.802 76.2119 113.296 76.2119H102.059V84.8243C102.11 88.8985 108.994 88.8469 108.994 84.8243V80.6986H114.309V84.5665C114.562 95.2417 96.5419 94.9839 96.6937 84.5665ZM108.893 72.1378V66.1039C108.893 62.0814 102.059 62.0814 101.958 66.1039V72.1378H108.893ZM86.3171 65.5882C86.3171 61.8235 80.0406 61.9267 79.9393 65.7429V91.6833H72.1949V87.6608H74.6751V63.216H71.7393V59.245H79.2307V62.1845C79.2307 62.1845 80.1418 60.7921 82.5208 59.4512C85.5579 57.7494 88.5443 59.4512 88.0888 59.245C90.4678 60.328 91.3789 62.9581 91.5814 65.8977V87.7123H94.9727V91.6833H86.3678L86.3171 65.5882ZM65.1084 43H68.9554V107H65.1084V43ZM44.001 84.5665V66.1039C43.8491 55.6865 61.8689 55.635 61.5652 66.3618V69.5592H56.301L56.2504 66.1039C56.2504 62.133 49.4676 62.2361 49.3158 66.2587V84.8243C49.3664 88.8985 56.2504 88.8469 56.2504 84.8243V80.6986H61.5652V84.5665C61.8689 95.2417 43.8491 94.9839 44.001 84.5665Z" fill="#1F1F1F"/>
</svg>
