<svg width="174" height="151" viewBox="0 0 174 151" fill="none" xmlns="http://www.w3.org/2000/svg">
<rect width="174" height="151" fill="white"/>
<path d="M61.7422 65.7495H65.0969V68.2902C65.1709 69.1042 64.9242 69.8442 64.5295 70.5102C63.9622 71.1762 63.2962 71.6448 62.4822 71.9902L61.7422 70.6088C62.2355 70.4362 62.6549 70.1155 62.9755 69.7948C63.2222 69.5482 63.2962 69.2275 63.3949 68.8082H61.8162V65.7742H61.7422V65.7495Z" fill="#101011"/>
<path d="M13 68.882H14.48V66.3414L19.5613 64.7134V68.882H22.176V72.4834H19.5613V77.392V77.8114V78.2307C19.5613 78.5514 19.6353 78.8967 19.734 79.2174C19.808 79.538 20.0547 79.6367 20.474 79.6367C20.7207 79.6367 21.0413 79.5627 21.288 79.464C21.6087 79.39 21.954 79.2914 22.2007 79.1434V82.5474L21.4607 82.794C21.14 82.868 20.7947 82.868 20.474 82.9667L19.5613 83.0407H18.8953C18.0813 83.0407 17.2673 82.9667 16.5273 82.6214C15.96 82.3747 15.5407 81.9554 15.22 81.4867C14.8993 80.9194 14.7267 80.352 14.6527 79.686C14.5787 78.946 14.5787 78.206 14.48 77.318V72.4094H13V68.882Z" fill="#101011"/>
<path d="M30.3652 79.4395C30.6859 79.4395 30.9325 79.3655 31.1792 79.1929C31.4259 78.9462 31.6725 78.6995 31.7465 78.4529C31.9192 78.0335 32.0672 77.7129 32.1659 77.3182C32.2399 76.8249 32.3385 76.3315 32.2399 75.8382C32.2399 75.3449 32.1659 74.8515 32.0672 74.3582C31.9932 73.9389 31.8205 73.5442 31.6479 73.2235C31.4752 72.9029 31.3272 72.6562 30.9819 72.4095C30.7352 72.2369 30.4145 72.1629 30.0692 72.1629C29.8225 72.1629 29.5019 72.2369 29.3292 72.4095C29.0825 72.6562 28.8359 72.9029 28.7619 73.1495C28.5892 73.4702 28.5152 73.8895 28.4412 74.2842C28.3672 74.7775 28.2685 75.1969 28.2685 75.6655C28.2685 76.5782 28.4412 77.5402 28.8359 78.3789C29.1319 78.9462 29.7239 79.3655 30.3652 79.4395ZM30.3652 82.9669C29.3785 82.9669 28.3919 82.7942 27.5039 82.5475C26.5912 82.2269 25.7772 81.8075 25.0372 81.1662C24.2972 80.5002 23.7299 79.7849 23.3105 78.8722C22.8912 77.8855 22.6445 76.7509 22.6445 75.6902C22.6445 74.6295 22.8912 73.6429 23.3105 72.6562C23.7299 71.8422 24.2972 71.0282 25.0372 70.4362C25.7772 69.8689 26.5912 69.3755 27.4052 69.0549C28.3179 68.7342 29.2799 68.5615 30.1925 68.5615C31.2532 68.5615 32.2399 68.7342 33.2265 69.0549C34.1392 69.3755 34.9532 69.8689 35.6932 70.5349C36.4332 71.2009 36.9265 71.9162 37.3212 72.8289C37.7405 73.8155 37.8885 74.8762 37.8885 75.9369C37.8885 76.9975 37.7159 77.9842 37.3212 78.9709C36.9019 79.7849 36.4085 80.5989 35.6932 81.1909C34.9532 81.7582 34.1392 82.2515 33.3252 82.4982C32.3385 82.7942 31.3519 82.9669 30.3652 82.9669Z" fill="#101011"/>
<path d="M46.5956 82.5472H38.4062V78.9459H39.5409V72.4832H38.4802V68.8819H43.6356L44.2029 70.5099L44.6963 70.0165C44.9429 69.7699 45.1896 69.5232 45.4363 69.3505C45.7569 69.1039 46.1023 68.9312 46.4229 68.7832C46.8423 68.6105 47.2369 68.5365 47.6563 68.5365C48.2236 68.5365 48.7909 68.6105 49.3829 68.7832C49.8023 68.8572 50.1969 69.1039 50.5176 69.2765C50.7642 69.4492 51.0849 69.6959 51.2576 69.9425C51.4302 70.1892 51.5782 70.3619 51.6769 70.5099C52.1702 70.0165 52.7376 69.5232 53.3049 69.2025C54.0449 68.7832 54.8589 68.5365 55.7716 68.5365C56.6842 68.4625 57.6462 68.7092 58.4849 69.1039C59.1509 69.4245 59.6196 69.9179 60.0389 70.5839C60.3596 71.2499 60.6062 71.8912 60.7049 72.6312C60.7789 73.4452 60.8776 74.2592 60.8776 75.0979V78.8719H62.1849V82.5472H55.2289V75.8379V75.2705V74.6045V73.7905C55.2289 73.5439 55.1549 73.2972 55.0563 73.0505C54.9823 72.8779 54.8836 72.7299 54.7356 72.5572C54.5876 72.3845 54.4149 72.3845 54.1682 72.3845C53.6749 72.3105 53.2556 72.5572 53.0336 72.9519C52.7869 73.4452 52.7129 73.9385 52.7869 74.4319V78.8472H54.4149V82.5472H47.3602V75.5912C47.3602 74.7772 47.3602 73.9632 47.1876 73.2232C47.1136 72.7299 46.6942 72.4092 46.2009 72.4832C45.8802 72.4832 45.4609 72.5572 45.2142 72.9025C44.9676 73.3219 44.8936 73.7165 44.8936 74.1359V79.0445H46.5216V82.5472H46.5956Z" fill="#101011"/>
<path d="M65.1699 82.5471V77.6384H68.8453C68.8453 77.9591 68.9193 78.3044 69.1659 78.551C69.4126 78.7977 69.6593 78.9704 69.9799 79.1184C70.3006 79.2911 70.6459 79.365 70.9666 79.439C71.2133 79.513 71.5339 79.5131 71.7806 79.5131C72.0273 79.5131 72.3479 79.4391 72.5946 79.3404C72.8413 79.1677 73.0139 78.9211 73.0139 78.6004C73.0139 78.3537 72.8413 78.107 72.4466 77.9344C71.9533 77.7617 71.5339 77.6137 71.0653 77.5151C70.4979 77.3424 69.8319 77.1944 69.1906 77.0217C68.5246 76.8491 67.8833 76.5284 67.3159 76.2077C66.7486 75.887 66.2553 75.3937 65.9346 74.8264C65.5153 74.1604 65.3673 73.3464 65.3673 72.6064C65.3673 71.9404 65.5399 71.373 65.8606 70.8057C66.1813 70.3124 66.6006 69.893 67.0939 69.5724C67.5873 69.2517 68.0806 69.005 68.6479 68.8324C69.1413 68.5857 69.6346 68.5117 70.1279 68.5117C71.0406 68.5117 71.8546 68.7584 72.6686 69.1777C73.3346 69.4984 73.9019 69.9917 74.2226 70.6577L74.4693 68.8571H77.8239V73.7657H74.2226C74.2226 73.445 74.1486 73.1984 73.9759 72.9517C73.8033 72.7051 73.5566 72.4584 73.3099 72.2857C73.0633 72.113 72.7426 71.965 72.3973 71.7924C72.0766 71.7184 71.7313 71.6197 71.4106 71.6197C71.1639 71.6197 70.8433 71.6937 70.6706 71.8664C70.4239 72.0391 70.3499 72.3597 70.3499 72.6064C70.3499 72.9271 70.5966 73.2724 70.9173 73.3464C71.4106 73.5931 71.9039 73.7657 72.3973 73.8397L74.2719 74.4071C74.9379 74.5797 75.5793 74.9004 76.1466 75.221C76.7139 75.5417 77.2073 76.035 77.6266 76.6024C78.0459 77.1697 78.1939 77.9097 78.1939 78.6497C78.1939 79.2171 78.0213 79.7844 77.7746 80.3764C77.5279 80.8697 77.1086 81.3631 76.6399 81.6837C76.1466 82.1031 75.5793 82.3497 75.0119 82.4977C74.3459 82.6704 73.7046 82.7444 73.1373 82.7444C72.2246 82.7444 71.3366 82.5717 70.5226 82.1771C69.8566 81.8564 69.2893 81.363 68.8946 80.7957L68.6479 82.4237L65.1699 82.5471Z" fill="#101011"/>
<path d="M91.3901 75.5915C91.3901 76.0109 91.4641 76.4055 91.5627 76.8249C91.6367 77.2442 91.8094 77.5649 91.9821 77.8855C92.1547 78.2062 92.3027 78.4529 92.6481 78.6255C92.8947 78.7982 93.1414 78.9462 93.4621 78.9462C94.0294 78.9462 94.5227 78.6255 94.8434 78.1322C95.2627 77.3922 95.5094 76.6522 95.4107 75.7642C95.4107 75.2709 95.3367 74.7775 95.2381 74.3829C95.1641 73.9635 94.9914 73.5689 94.8187 73.2482C94.6461 72.9275 94.4981 72.6809 94.1527 72.5082C93.9061 72.3355 93.6594 72.2615 93.3387 72.2615C92.7714 72.2615 92.2041 72.6809 91.9574 73.1742C91.4641 73.8649 91.3161 74.6789 91.3901 75.5915ZM87.3694 82.7202L88.1094 83.2135C88.4301 83.4602 88.8494 83.6329 89.2441 83.7809C89.6634 83.9535 90.1567 84.1015 90.6254 84.2742C91.1187 84.4469 91.6861 84.4469 92.1794 84.4469C92.6727 84.4469 93.2401 84.3729 93.7334 84.2002C94.0541 84.0275 94.3994 83.8795 94.7201 83.5342C94.9667 83.2875 95.1394 83.0409 95.2134 82.7202C95.2874 82.3995 95.3861 82.1529 95.3861 81.8075V80.8949C95.3121 81.0675 95.1394 81.2155 94.9667 81.3142C94.7941 81.4869 94.5474 81.6349 94.3007 81.8075C93.9801 81.9802 93.7334 82.1282 93.3881 82.2269C92.9687 82.3009 92.5741 82.3995 92.1547 82.3995C91.0941 82.3995 90.1074 82.2269 89.1207 81.8322C88.3067 81.5115 87.6407 80.9195 87.0734 80.2782C86.5801 79.6122 86.1607 78.8969 85.9387 78.0582C85.6921 77.2442 85.5194 76.4302 85.6181 75.5175C85.6181 74.5309 85.7907 73.5442 86.0374 72.6562C86.2841 71.8422 86.7774 71.1022 87.3447 70.4362C87.9121 69.7702 88.6521 69.3015 89.4661 69.0549C90.3787 68.7342 91.3407 68.5615 92.3274 68.5615C92.8947 68.5615 93.4621 68.7342 94.0541 68.9809C94.4734 69.1535 94.8681 69.4002 95.2874 69.7209L95.8547 68.9069H102.416V72.5082H100.788V80.6975C100.788 81.7582 100.615 82.8189 100.295 83.8055C99.9741 84.7182 99.3821 85.5322 98.7407 86.1735C98.0007 86.8395 97.0141 87.4069 96.0274 87.7275C94.7941 88.1469 93.5607 88.2949 92.2534 88.2949C91.5134 88.2949 90.8721 88.2209 90.1321 88.0482C89.5647 87.8755 88.8987 87.7275 88.3314 87.3822C87.8381 87.1355 87.3447 86.8889 86.9501 86.5682L85.9634 85.8282L87.3694 82.7202Z" fill="#101011"/>
<path d="M103.502 68.8818H110.137V75.5172C110.137 76.4298 110.211 77.3178 110.458 78.1318C110.631 78.6252 111.124 78.9458 111.593 78.9458C112.086 78.9458 112.505 78.6992 112.826 78.3785C113.147 77.9592 113.319 77.3918 113.319 76.8985V72.5572H111.519V68.8818H118.647V78.9458H119.955V82.6212H114.799L114.059 80.8945L113.492 81.5605C112.999 82.1278 112.357 82.5472 111.617 82.7938C111.124 82.9665 110.631 83.0405 110.137 83.0405C109.225 83.0405 108.337 82.9665 107.523 82.6212C106.857 82.3745 106.289 81.9552 105.796 81.3878C105.303 80.7218 104.982 80.0805 104.883 79.2665C104.711 78.2798 104.637 77.2932 104.637 76.3065V72.5325H103.502V68.8818Z" fill="#101011"/>
<path d="M128.737 82.5472H121.115V78.9458H122.275V72.3845H121.115V68.8818H127.504V79.0198H128.811L128.737 82.5472Z" fill="#101011"/>
<path d="M135.199 75.5913C135.199 76.0107 135.273 76.4053 135.372 76.8247C135.446 77.244 135.619 77.5647 135.791 77.8853C135.964 78.206 136.112 78.4527 136.457 78.6253C136.704 78.798 136.951 78.946 137.271 78.946C137.839 78.946 138.332 78.6253 138.653 78.132C139.072 77.392 139.319 76.652 139.22 75.764C139.22 75.2707 139.146 74.7773 139.047 74.3827C138.973 73.9633 138.801 73.5687 138.628 73.248C138.455 72.9273 138.307 72.6807 137.962 72.508C137.715 72.3353 137.469 72.2613 137.148 72.2613C136.581 72.2613 136.013 72.6807 135.767 73.174C135.372 73.8647 135.125 74.6787 135.199 75.5913ZM139.146 65.6013H137.913V62H144.696V79.0447H146.003V82.646H139.615L139.121 81.6593C138.949 81.832 138.875 81.906 138.702 81.98C138.455 82.1527 138.209 82.3007 137.962 82.3993C137.641 82.572 137.296 82.646 136.975 82.72C136.556 82.794 136.161 82.8927 135.668 82.8927C134.755 82.8927 133.867 82.72 133.053 82.3253C132.313 81.906 131.573 81.4127 131.08 80.7713C130.513 80.1053 130.093 79.2913 129.773 78.4773C129.452 77.5647 129.279 76.6767 129.279 75.69C129.279 74.7033 129.452 73.7167 129.773 72.8287C130.093 72.0147 130.587 71.2747 131.154 70.6087C131.721 70.0413 132.387 69.548 133.201 69.2273C133.941 68.9067 134.755 68.734 135.569 68.734C136.309 68.734 137.123 68.808 137.863 69.1533C138.283 69.326 138.677 69.5727 139.097 69.8193V65.6013H139.146Z" fill="#101011"/>
<path d="M154.118 72.1382C153.798 72.1382 153.378 72.2122 153.058 72.3849C152.811 72.5576 152.564 72.7056 152.392 72.9522C152.219 73.1989 152.145 73.4456 152.071 73.6922C151.997 73.9389 151.997 74.1116 151.997 74.3582H156.166C156.166 74.1116 156.166 73.7909 156.092 73.5442C156.018 73.2976 155.919 73.0509 155.771 72.8042C155.598 72.5576 155.45 72.3849 155.204 72.3109C154.858 72.2369 154.538 72.1382 154.118 72.1382ZM160.926 80.6729C159.94 81.4869 158.879 82.1529 157.646 82.5476C156.412 82.9669 155.105 83.1149 153.798 83.0409C152.885 83.0409 152.071 82.8682 151.257 82.6216C150.443 82.3749 149.629 81.8816 148.963 81.3142C148.223 80.6482 147.656 79.9329 147.236 79.0202C146.743 77.9596 146.57 76.8002 146.57 75.6656C146.57 74.6049 146.743 73.6182 147.138 72.6316C147.458 71.8176 148.05 71.0036 148.692 70.3376C149.333 69.6716 150.172 69.2029 151.06 68.9562C151.972 68.6356 152.934 68.4629 154.02 68.4629C155.006 68.4629 156.067 68.6356 157.054 68.9562C157.868 69.2769 158.608 69.6962 159.274 70.3376C159.841 70.9049 160.334 71.6449 160.581 72.3849C160.902 73.1989 161 74.1116 161 74.9996C161 75.3202 161 75.7396 160.926 76.0602L160.68 77.0469H151.997C152.071 77.2936 152.071 77.4662 152.17 77.7129C152.244 77.9596 152.416 78.2062 152.589 78.4529C152.836 78.6996 153.082 78.9462 153.403 79.0202C153.822 79.1929 154.316 79.2669 154.784 79.2669H155.598C155.919 79.2669 156.264 79.1929 156.511 79.0942C156.832 79.0202 157.251 78.8476 157.572 78.6749C157.991 78.5022 158.312 78.2556 158.632 77.9349L160.926 80.6729Z" fill="#101011"/>
</svg>
