<svg width="172" height="150" viewBox="0 0 172 150" fill="none" xmlns="http://www.w3.org/2000/svg">
<rect width="172" height="150" fill="white"/>
<path fill-rule="evenodd" clip-rule="evenodd" d="M47.5793 75.7942L51.351 80.7192C51.6638 81.128 51.6816 81.8075 51.3903 82.2313L51.1996 82.5079C50.9093 82.9307 50.3254 83.5187 49.9029 83.8147L49.4493 84.1301C49.0275 84.4254 48.3442 84.4147 47.9323 84.1055L42.9509 80.3705C42.539 80.0612 41.864 80.0612 41.4519 80.3705L36.4707 84.1055C36.0584 84.4149 35.3715 84.43 34.9466 84.1408L34.6173 83.9173C34.1921 83.6265 33.6 83.0455 33.304 82.6264L33.0198 82.2234C32.7239 81.8051 32.7366 81.1282 33.048 80.7193L36.8249 75.792C37.1363 75.383 37.1363 74.7165 36.8249 74.308L33.048 69.3792C32.7367 68.9704 32.7248 68.2958 33.0232 67.8776L33.3442 67.4291C33.6414 67.011 34.2359 66.4334 34.6637 66.1466L34.944 65.958C35.3716 65.6697 36.0584 65.6887 36.4708 65.9964L41.4519 69.7316C41.8641 70.0407 42.539 70.0407 42.9509 69.7316L47.9323 65.9964C48.3442 65.6885 49.0453 65.6473 49.4919 65.9075L50.0129 66.2119C50.4593 66.4718 51.0291 67.0514 51.2801 67.4991L51.4637 67.8269C51.7135 68.2734 51.6638 68.9737 51.3511 69.3825L47.5793 74.3101C47.2666 74.7187 47.2666 75.3865 47.5793 75.7941L47.5793 75.7942ZM42.2629 56.1321C31.7267 56.1321 23.1855 64.5792 23.1855 74.9988C23.1855 85.4197 31.7267 93.8679 42.2629 93.8679C52.7994 93.8679 61.3406 85.4197 61.3406 74.9988C61.3406 64.5792 52.7994 56.1321 42.2629 56.1321Z" fill="#0071CE"/>
<path fill-rule="evenodd" clip-rule="evenodd" d="M116.148 75.3726L121.863 69.7203C122.662 68.9308 122.662 67.6501 121.863 66.8602C121.065 66.0705 119.77 66.0705 118.971 66.8602L113.256 72.5125L107.541 66.8602C106.743 66.0705 105.448 66.0705 104.649 66.8602C103.851 67.6501 103.851 68.9305 104.649 69.7203L110.364 75.3726L104.649 81.0246C103.851 81.8144 103.851 83.095 104.649 83.885C105.049 84.2799 105.572 84.4772 106.095 84.4772C106.619 84.4772 107.142 84.2799 107.541 83.885L113.256 78.2326L118.971 83.885C119.371 84.2799 119.894 84.4772 120.417 84.4772C120.94 84.4772 121.464 84.2799 121.863 83.885C122.662 83.095 122.662 81.8144 121.863 81.0246L116.148 75.3726ZM139.094 69.9056H135.237C134.221 69.9056 133.387 69.081 133.387 68.0756C133.387 67.0708 134.221 66.2457 135.237 66.2457H146.964C147.981 66.2457 148.814 67.0708 148.814 68.0756C148.814 69.081 147.981 69.9056 146.964 69.9056H143.107V82.4571C143.107 83.5656 142.221 84.4419 141.101 84.4419C139.98 84.4419 139.094 83.5656 139.094 82.4571V69.9056V69.9056ZM126.273 68.0756C126.273 66.9676 127.159 66.0913 128.279 66.0913C129.4 66.0913 130.286 66.9676 130.286 68.0756V82.4571C130.286 83.5656 129.4 84.4419 128.279 84.4419C127.159 84.4419 126.273 83.5656 126.273 82.4571V68.0756V68.0756ZM96.2266 68.0756C96.2266 66.9676 97.1126 66.0913 98.2328 66.0913C99.3536 66.0913 100.24 66.9676 100.24 68.0756V82.4571C100.24 83.5656 99.3536 84.4419 98.2328 84.4419C97.1126 84.4419 96.2266 83.5656 96.2266 82.4571V68.0756ZM78.9489 68.2304C78.9489 67.122 79.8352 66.2457 80.9559 66.2457H91.1711C92.1875 66.2457 92.9952 67.0448 92.9952 68.0498C92.9952 69.055 92.1875 69.8541 91.1711 69.8541H82.9624V73.6941H89.9986C91.0147 73.6941 91.8222 74.4932 91.8222 75.4982C91.8222 76.5037 91.0147 77.3023 89.9986 77.3023H82.9624V82.4571C82.9624 83.5656 82.0761 84.4419 80.9559 84.4419C79.8352 84.4419 78.9489 83.5656 78.9489 82.4571V68.2304V68.2304ZM70.3759 68.0756C70.3759 66.9676 71.2619 66.0913 72.3821 66.0913C73.5029 66.0913 74.3886 66.9676 74.3886 68.0756V82.4571C74.3886 83.5656 73.5029 84.4419 72.3821 84.4419C71.2619 84.4419 70.3759 83.5656 70.3759 82.4571V68.0756Z" fill="#1F2123"/>
</svg>
